<svg width="24" height="24" viewBox="0 0 24 24" fill="none" xmlns="http://www.w3.org/2000/svg">
<path d="M17.5346 6.46553C17.0651 5.9962 16.4288 5.73216 15.765 5.73128C15.1012 5.7304 14.4642 5.99275 13.9935 6.46082L13.0806 7.4176C12.9638 7.52672 12.8098 7.58714 12.65 7.58649C12.4902 7.58584 12.3367 7.52419 12.2208 7.41412C12.1049 7.30406 12.0355 7.1539 12.0266 6.99433C12.0178 6.83476 12.0702 6.67784 12.1732 6.55564L13.0916 5.5926C13.0948 5.58901 13.0982 5.58561 13.1018 5.58241C13.8091 4.88653 14.7627 4.49832 15.7549 4.50236C16.7472 4.5064 17.6976 4.90236 18.3992 5.60398C19.1009 6.30561 19.4968 7.25605 19.5009 8.24829C19.5049 9.24052 19.1167 10.1942 18.4208 10.9015C18.4176 10.9051 18.4142 10.9085 18.4106 10.9117L17.4476 11.83C17.3254 11.933 17.1685 11.9854 17.0089 11.9766C16.8493 11.9677 16.6992 11.8983 16.5891 11.7824C16.479 11.6666 16.4174 11.513 16.4167 11.3532C16.4161 11.1934 16.4765 11.0394 16.5856 10.9226L17.5424 10.0097C18.011 9.53853 18.2734 8.90057 18.2719 8.23601C18.2705 7.57145 18.0053 6.93466 17.5346 6.46553ZM10.9194 16.5826L10.0065 17.5393C9.53402 17.9982 8.89991 18.2528 8.24124 18.248C7.58258 18.2432 6.95225 17.9794 6.48649 17.5136C6.02073 17.0478 5.75694 16.4175 5.75212 15.7588C5.74731 15.1002 6.00186 14.4661 6.46076 13.9935L7.41754 13.0807C7.52666 12.9639 7.58707 12.8099 7.58643 12.6501C7.58578 12.4903 7.52413 12.3367 7.41406 12.2209C7.304 12.105 7.15384 12.0355 6.99427 12.0267C6.8347 12.0178 6.67778 12.0703 6.55558 12.1733L5.5894 13.0916C5.58581 13.0948 5.58241 13.0982 5.57922 13.1018C4.88333 13.8091 4.49513 14.7628 4.49917 15.755C4.50321 16.7472 4.89916 17.6977 5.60079 18.3993C6.30241 19.1009 7.25285 19.4969 8.24509 19.5009C9.23733 19.505 10.191 19.1168 10.8983 18.4209C10.9019 18.4177 10.9053 18.4143 10.9085 18.4107L11.8268 17.4476C11.8893 17.3893 11.9391 17.3188 11.9733 17.2405C12.0075 17.1621 12.0253 17.0777 12.0257 16.9922C12.026 16.9067 12.0089 16.8221 11.9753 16.7435C11.9418 16.6649 11.8925 16.594 11.8305 16.5352C11.7686 16.4763 11.6952 16.4307 11.615 16.4013C11.5348 16.3718 11.4494 16.359 11.3641 16.3638C11.2787 16.3685 11.1953 16.3906 11.1188 16.4288C11.0424 16.4669 10.9745 16.5203 10.9194 16.5857V16.5826ZM18.8957 13.8807H17.015C16.8488 13.8807 16.6893 13.9468 16.5718 14.0643C16.4542 14.1819 16.3882 14.3413 16.3882 14.5076C16.3882 14.6738 16.4542 14.8333 16.5718 14.9509C16.6893 15.0684 16.8488 15.1345 17.015 15.1345H18.8957C19.0619 15.1345 19.2214 15.0684 19.3389 14.9509C19.4565 14.8333 19.5226 14.6738 19.5226 14.5076C19.5226 14.3413 19.4565 14.1819 19.3389 14.0643C19.2214 13.9468 19.0619 13.8807 18.8957 13.8807ZM5.10436 10.1194H6.98499C7.15125 10.1194 7.3107 10.0534 7.42826 9.93583C7.54582 9.81827 7.61187 9.65882 7.61187 9.49256C7.61187 9.32631 7.54582 9.16686 7.42826 9.04929C7.3107 8.93173 7.15125 8.86569 6.98499 8.86569H5.10436C4.9381 8.86569 4.77865 8.93173 4.66109 9.04929C4.54352 9.16686 4.47748 9.32631 4.47748 9.49256C4.47748 9.65882 4.54352 9.81827 4.66109 9.93583C4.77865 10.0534 4.9381 10.1194 5.10436 10.1194ZM14.5075 16.3882C14.3413 16.3882 14.1818 16.4543 14.0643 16.5718C13.9467 16.6894 13.8807 16.8488 13.8807 17.0151V18.8957C13.8807 19.062 13.9467 19.2214 14.0643 19.339C14.1818 19.4566 14.3413 19.5226 14.5075 19.5226C14.6738 19.5226 14.8332 19.4566 14.9508 19.339C15.0684 19.2214 15.1344 19.062 15.1344 18.8957V17.0151C15.1344 16.8488 15.0684 16.6894 14.9508 16.5718C14.8332 16.4543 14.6738 16.3882 14.5075 16.3882ZM9.4925 7.61193C9.65876 7.61193 9.81821 7.54588 9.93577 7.42832C10.0533 7.31076 10.1194 7.15131 10.1194 6.98505V5.10442C10.1194 4.93816 10.0533 4.77871 9.93577 4.66115C9.81821 4.54359 9.65876 4.47754 9.4925 4.47754C9.32624 4.47754 9.1668 4.54359 9.04923 4.66115C8.93167 4.77871 8.86562 4.93816 8.86562 5.10442V6.98505C8.86562 7.15131 8.93167 7.31076 9.04923 7.42832C9.1668 7.54588 9.32624 7.61193 9.4925 7.61193Z" fill="#FF6431"/>
<path opacity="0.2" d="M22.4602 9.29581L9.29581 22.4602C8.26129 23.4594 6.87572 24.0123 5.43752 23.9998C3.99932 23.9873 2.62357 23.4104 1.60657 22.3934C0.589576 21.3764 0.0127049 20.0007 0.000207354 18.5625C-0.0122902 17.1243 0.540586 15.7387 1.53976 14.7042L14.7042 1.53976C15.7387 0.540586 17.1243 -0.0122902 18.5625 0.000207354C20.0007 0.0127049 21.3764 0.589576 22.3934 1.60657C23.4104 2.62357 23.9873 3.99932 23.9998 5.43752C24.0123 6.87572 23.4594 8.26129 22.4602 9.29581Z" fill="#FF6431"/>
</svg>
